<svg width="128" height="128" viewBox="0 0 128 128" fill="none" xmlns="http://www.w3.org/2000/svg">
<rect width="128" height="128" rx="20" fill="#3C2B99"/>
<path d="M54.5208 94.4063C52.2847 94.4063 50.2791 93.823 48.5038 92.6563C46.7285 91.4896 45.3557 89.8854 44.3855 87.8437C43.6077 88.8646 42.6238 89.655 41.4338 90.215C40.2438 90.775 39.0158 91.0531 37.75 91.0492C35.2708 91.0492 33.1922 90.1985 31.5142 88.4971C29.8361 86.7957 28.9981 84.7307 29 82.3021C29 80.2119 29.6806 78.3286 31.0417 76.6525C32.4028 74.9764 34.1285 74.0158 36.2188 73.7708C35.5382 72.7986 35.0161 71.7661 34.6525 70.6733C34.2889 69.5806 34.1061 68.4256 34.1042 67.2083C34.1042 65.2639 34.6029 63.4409 35.6004 61.7396C36.5979 60.0382 37.995 58.6528 39.7917 57.5833C40.0347 58.4583 40.3633 59.3946 40.7775 60.3921C41.1917 61.3896 41.6652 62.252 42.198 62.9792C41.5174 63.5139 40.9827 64.1584 40.5938 64.9129C40.2049 65.6673 40.0105 66.4568 40.0105 67.2813C40.0105 70.0035 41.1285 71.6806 43.3646 72.3125C45.6007 72.9445 47.7153 73.4548 49.7083 73.8437L51.0938 76.1771C50.5591 77.7326 50.0972 79.0578 49.7083 80.1525C49.3194 81.2472 49.125 82.2311 49.125 83.1042C49.125 84.5625 49.6481 85.8391 50.6942 86.9338C51.7403 88.0285 53.0158 88.5749 54.5208 88.573C56.3681 88.573 57.8993 87.7466 59.1146 86.0938C60.3299 84.441 61.3264 82.4966 62.1042 80.2605C62.8819 78.0244 63.478 75.7639 63.8921 73.4792C64.3063 71.1945 64.6339 69.4445 64.875 68.2292L70.5625 69.7604C70.125 71.948 69.5903 74.4514 68.9583 77.2708C68.3264 80.0903 67.4388 82.7766 66.2955 85.3296C65.1541 87.8807 63.6471 90.0313 61.7746 91.7813C59.9021 93.5313 57.4842 94.4063 54.5208 94.4063ZM58.4583 73.698C56.2222 71.7048 54.1932 69.845 52.3713 68.1183C50.5493 66.3917 48.9811 64.7156 47.6667 63.09C46.3542 61.4625 45.345 59.835 44.6392 58.2075C43.9333 56.58 43.5814 54.8883 43.5833 53.1325C43.5833 49.9747 44.6655 47.3137 46.8296 45.1496C48.9938 42.9855 51.6547 41.9044 54.8125 41.9063C55.0069 41.9063 55.1771 41.9189 55.323 41.9442C55.4688 41.9695 55.6389 41.9811 55.8333 41.9792C55.6389 41.4931 55.4931 41.007 55.3958 40.5208C55.2986 40.0347 55.25 39.5243 55.25 38.9896C55.25 36.559 56.1007 34.4931 57.8021 32.7917C59.5035 31.0903 61.5694 30.2396 64 30.2396C66.4306 30.2396 68.4966 31.0903 70.198 32.7917C71.8993 34.4931 72.75 36.559 72.75 38.9896C72.75 39.5243 72.7014 40.0231 72.6042 40.4858C72.5069 40.9486 72.3611 41.4221 72.1667 41.9063H73.1875C76.1042 41.9063 78.5833 42.8425 80.625 44.715C82.6667 46.5875 83.8819 48.9082 84.2708 51.6771C83.3958 51.5313 82.4119 51.4583 81.3192 51.4583C80.2264 51.4583 79.2172 51.507 78.2917 51.6042C77.9514 50.4861 77.3311 49.5625 76.4308 48.8333C75.5306 48.1042 74.4494 47.7396 73.1875 47.7396C71.4861 47.7396 70.161 48.2383 69.2121 49.2358C68.2632 50.2333 66.9633 51.6791 65.3125 53.573H62.6146C60.9132 51.5798 59.5881 50.1089 58.6392 49.16C57.6903 48.2111 56.4147 47.7386 54.8125 47.7425C53.2569 47.7425 51.9688 48.2529 50.948 49.2737C49.9271 50.2946 49.4167 51.5818 49.4167 53.1354C49.4167 54.2534 49.7327 55.4085 50.3646 56.6005C50.9966 57.7923 51.8832 59.0562 53.0246 60.3921C54.168 61.7279 55.5533 63.1493 57.1808 64.6563C58.8083 66.1632 60.6196 67.7917 62.6146 69.5417L58.4583 73.698ZM73.4063 94.4063C72.3368 94.4063 71.2791 94.2604 70.233 93.9687C69.1868 93.6771 68.1786 93.2153 67.2083 92.5833C67.7431 91.9028 68.2778 91.1007 68.8125 90.1771C69.3472 89.2535 69.8333 88.4028 70.2708 87.625C70.8056 87.9653 71.3403 88.2083 71.875 88.3542C72.4097 88.5 72.9444 88.573 73.4792 88.573C75.0347 88.573 76.3356 88.0256 77.3817 86.9308C78.4278 85.8361 78.9499 84.5362 78.948 83.0313C78.948 82.1076 78.7535 81.1111 78.3646 80.0417C77.9757 78.9722 77.5139 77.6597 76.9792 76.1042L78.3646 73.7708C80.4063 73.382 82.5335 72.8715 84.7463 72.2396C86.9591 71.6076 88.0644 69.9306 88.0625 67.2083C88.0625 65.2639 87.345 63.8542 85.91 62.9792C84.475 62.1042 82.9078 61.6667 81.2083 61.6667C79.1667 61.6667 76.7847 62.0556 74.0625 62.8333C71.3403 63.6111 68.1563 64.6076 64.5105 65.823L62.9792 60.1354C66.7708 58.9202 70.1493 57.8993 73.1146 57.073C76.0799 56.2465 78.8021 55.8333 81.2813 55.8333C84.6355 55.8333 87.5764 56.8298 90.1042 58.823C92.6319 60.8159 93.8958 63.6111 93.8958 67.2083C93.8958 68.4236 93.7141 69.5786 93.3505 70.6733C92.9868 71.7681 92.4638 72.8006 91.7813 73.7708C93.8716 74.0139 95.5972 74.9745 96.9583 76.6525C98.3194 78.3306 99 80.2138 99 82.3021C99 84.7326 98.161 86.7986 96.483 88.5C94.8049 90.2014 92.7272 91.0521 90.25 91.0521C88.9861 91.0521 87.7582 90.7731 86.5663 90.215C85.3743 89.657 84.3905 88.8666 83.6146 87.8437C82.6424 89.8854 81.2686 91.4896 79.4933 92.6563C77.7181 93.823 75.6891 94.4063 73.4063 94.4063Z" fill="white"/>
</svg>
