<svg width="25" height="25" viewBox="0 0 25 25" fill="none" xmlns="http://www.w3.org/2000/svg">
<path d="M18.3103 4.61671L16.227 3.52296C14.3978 2.56358 13.4833 2.08337 12.4999 2.08337C11.5166 2.08337 10.602 2.56254 8.77284 3.52296L6.6895 4.61671C4.84263 5.58546 3.75617 6.15629 3.08325 6.91879L12.4999 11.6271L21.9166 6.91879C21.2437 6.15629 20.1583 5.58546 18.3103 4.61671ZM22.6541 8.29587L13.2812 12.9834V22.8167C14.0291 22.6302 14.8801 22.1844 16.227 21.4771L18.3103 20.3834C20.551 19.2073 21.6718 18.6198 22.2947 17.5625C22.9166 16.5063 22.9166 15.1907 22.9166 12.5625V12.4407C22.9166 10.4688 22.9166 9.23546 22.6541 8.29587ZM11.7187 22.8167V12.9834L2.34575 8.29587C2.08325 9.23546 2.08325 10.4688 2.08325 12.4386V12.5605C2.08325 15.1907 2.08325 16.5063 2.70513 17.5625C3.32804 18.6198 4.44888 19.2084 6.6895 20.3844L8.77284 21.4771C10.1197 22.1844 10.9708 22.6302 11.7187 22.8167Z" fill="white"/>
</svg>
