<svg width="90" height="90" viewBox="0 0 90 90" fill="none" xmlns="http://www.w3.org/2000/svg">
<path d="M45 3.69141C22.1859 3.69141 3.69141 22.1859 3.69141 45C3.69141 67.8141 22.1859 86.3086 45 86.3086C67.8141 86.3086 86.3086 67.8141 86.3086 45C86.3086 22.1859 67.8141 3.69141 45 3.69141ZM40.4819 11.4369V16.1872C40.4819 19.0999 42.4918 21.4283 45 21.4283C47.5082 21.4283 49.5181 19.1 49.5181 16.1873V11.4369C64.6105 13.449 76.551 25.3897 78.5633 40.4819H73.8128C70.9001 40.4819 68.5717 42.4918 68.5717 45C68.5717 47.5082 70.9 49.5181 73.8128 49.5181H78.5633C76.551 64.6105 64.6102 76.551 49.5181 78.5633V73.8128C49.5181 70.9001 47.5082 68.5717 45 68.5717C42.4918 68.5717 40.4819 70.9 40.4819 73.8128V78.5633C25.3895 76.551 13.449 64.6105 11.4367 49.5181H16.1872C19.0999 49.5181 21.4283 47.5082 21.4283 45C21.4283 42.4918 19.1 40.4819 16.1872 40.4819H11.4367C13.449 25.3895 25.3895 13.449 40.4819 11.4367V11.4369ZM28.7863 24.7071C27.7038 24.7279 26.6708 25.1188 25.8947 25.8947C24.1211 27.6683 24.3773 30.7543 26.437 32.814L29.974 36.351C28.5028 38.8997 27.6504 41.8458 27.6504 45C27.6504 48.1542 28.5029 51.1003 29.974 53.649L26.437 57.186C24.3773 59.2457 24.1212 62.3317 25.8947 64.1051C27.6681 65.8786 30.7543 65.6227 32.814 63.563L36.351 60.026C38.8999 61.4972 41.8458 62.3498 45 62.3498C48.1542 62.3498 51.1003 61.4972 53.649 60.026L57.186 63.563C59.2457 65.6227 62.3317 65.8788 64.1053 64.1053C65.8789 62.3319 65.6227 59.2457 63.563 57.186L60.026 53.649C61.4972 51.1001 62.3498 48.1542 62.3498 45C62.3498 41.8458 61.4972 38.8997 60.026 36.351L63.563 32.814C65.6227 30.7543 65.8788 27.6683 64.1053 25.8947C63.3292 25.1188 62.2962 24.7279 61.2137 24.7071C59.8219 24.6807 58.3446 25.2784 57.186 26.4368L53.649 29.974C51.1003 28.5028 48.1542 27.6502 45 27.6502C41.8458 27.6502 38.8997 28.5028 36.351 29.974L32.814 26.437C31.6556 25.2784 30.1781 24.6806 28.7865 24.7073L28.7863 24.7071ZM45 34.8794C50.5895 34.8794 55.1206 39.4105 55.1206 45C55.1206 50.5895 50.5895 55.1206 45 55.1206C39.4105 55.1206 34.8794 50.5895 34.8794 45C34.8794 39.4105 39.4105 34.8794 45 34.8794Z" fill="white"/>
</svg>
