<svg width="90" height="90" viewBox="0 0 90 90" fill="none" xmlns="http://www.w3.org/2000/svg">
<path d="M22.5 86.25C19.375 86.25 16.7188 85.1562 14.5312 82.9688C12.3438 80.7812 11.25 78.125 11.25 75C11.25 71.875 12.3438 69.2188 14.5312 67.0312C16.7188 64.8438 19.375 63.75 22.5 63.75C23.375 63.75 24.1875 63.8438 24.9375 64.0312C25.6875 64.2188 26.4062 64.4688 27.0938 64.7812L32.4375 58.125C30.6875 56.1875 29.4688 54 28.7812 51.5625C28.0938 49.125 27.9375 46.6875 28.3125 44.25L20.7188 41.7188C19.6562 43.2812 18.3125 44.5312 16.6875 45.4688C15.0625 46.4062 13.25 46.875 11.25 46.875C8.125 46.875 5.46875 45.7812 3.28125 43.5938C1.09375 41.4062 0 38.75 0 35.625C0 32.5 1.09375 29.8438 3.28125 27.6562C5.46875 25.4688 8.125 24.375 11.25 24.375C14.375 24.375 17.0312 25.4688 19.2188 27.6562C21.4062 29.8438 22.5 32.5 22.5 35.625V36.375L30.0937 39C31.3437 36.75 33.0163 34.8438 35.1112 33.2812C37.2062 31.7188 39.565 30.7188 42.1875 30.2812V22.125C39.75 21.4375 37.7337 20.1087 36.1388 18.1388C34.5438 16.1687 33.7475 13.8725 33.75 11.25C33.75 8.125 34.8438 5.46875 37.0312 3.28125C39.2188 1.09375 41.875 0 45 0C48.125 0 50.7812 1.09375 52.9688 3.28125C55.1562 5.46875 56.25 8.125 56.25 11.25C56.25 13.875 55.4375 16.1725 53.8125 18.1425C52.1875 20.1125 50.1875 21.44 47.8125 22.125V30.2812C50.4375 30.7188 52.7975 31.7188 54.8925 33.2812C56.9875 34.8438 58.6588 36.75 59.9062 39L67.5 36.375V35.625C67.5 32.5 68.5938 29.8438 70.7812 27.6562C72.9688 25.4688 75.625 24.375 78.75 24.375C81.875 24.375 84.5312 25.4688 86.7188 27.6562C88.9062 29.8438 90 32.5 90 35.625C90 38.75 88.9062 41.4062 86.7188 43.5938C84.5312 45.7812 81.875 46.875 78.75 46.875C76.75 46.875 74.9212 46.4062 73.2638 45.4688C71.6063 44.5312 70.2788 43.2812 69.2812 41.7188L61.6875 44.25C62.0625 46.6875 61.9063 49.11 61.2188 51.5175C60.5313 53.925 59.3125 56.1275 57.5625 58.125L62.9062 64.6875C63.5938 64.375 64.3125 64.14 65.0625 63.9825C65.8125 63.825 66.625 63.7475 67.5 63.75C70.625 63.75 73.2812 64.8438 75.4688 67.0312C77.6562 69.2188 78.75 71.875 78.75 75C78.75 78.125 77.6562 80.7812 75.4688 82.9688C73.2812 85.1562 70.625 86.25 67.5 86.25C64.375 86.25 61.7188 85.1562 59.5312 82.9688C57.3438 80.7812 56.25 78.125 56.25 75C56.25 73.75 56.4538 72.5462 56.8613 71.3888C57.2687 70.2313 57.815 69.185 58.5 68.25L53.1562 61.5937C50.5938 63.0312 47.8588 63.75 44.9513 63.75C42.0438 63.75 39.31 63.0312 36.75 61.5937L31.5 68.25C32.1875 69.1875 32.735 70.235 33.1425 71.3925C33.55 72.55 33.7525 73.7525 33.75 75C33.75 78.125 32.6562 80.7812 30.4688 82.9688C28.2812 85.1562 25.625 86.25 22.5 86.25ZM11.25 39.375C12.3125 39.375 13.2038 39.015 13.9237 38.295C14.6438 37.575 15.0025 36.685 15 35.625C15 34.5625 14.64 33.6712 13.92 32.9512C13.2 32.2313 12.31 31.8725 11.25 31.875C10.1875 31.875 9.29625 32.235 8.57625 32.955C7.85625 33.675 7.4975 34.565 7.5 35.625C7.5 36.6875 7.86 37.5788 8.58 38.2988C9.3 39.0187 10.19 39.3775 11.25 39.375ZM22.5 78.75C23.5625 78.75 24.4537 78.39 25.1737 77.67C25.8937 76.95 26.2525 76.06 26.25 75C26.25 73.9375 25.89 73.0462 25.17 72.3263C24.45 71.6063 23.56 71.2475 22.5 71.25C21.4375 71.25 20.5463 71.61 19.8263 72.33C19.1063 73.05 18.7475 73.94 18.75 75C18.75 76.0625 19.11 76.9538 19.83 77.6737C20.55 78.3937 21.44 78.7525 22.5 78.75ZM45 15C46.0625 15 46.9538 14.64 47.6738 13.92C48.3937 13.2 48.7525 12.31 48.75 11.25C48.75 10.1875 48.39 9.29625 47.67 8.57625C46.95 7.85625 46.06 7.4975 45 7.5C43.9375 7.5 43.0462 7.86 42.3262 8.58C41.6063 9.3 41.2475 10.19 41.25 11.25C41.25 12.3125 41.61 13.2038 42.33 13.9237C43.05 14.6438 43.94 15.0025 45 15ZM45 56.25C47.625 56.25 49.8438 55.3438 51.6562 53.5312C53.4688 51.7188 54.375 49.5 54.375 46.875C54.375 44.25 53.4688 42.0312 51.6562 40.2188C49.8438 38.4062 47.625 37.5 45 37.5C42.375 37.5 40.1562 38.4062 38.3438 40.2188C36.5312 42.0312 35.625 44.25 35.625 46.875C35.625 49.5 36.5312 51.7188 38.3438 53.5312C40.1562 55.3438 42.375 56.25 45 56.25ZM67.5 78.75C68.5625 78.75 69.4538 78.39 70.1737 77.67C70.8937 76.95 71.2525 76.06 71.25 75C71.25 73.9375 70.89 73.0462 70.17 72.3263C69.45 71.6063 68.56 71.2475 67.5 71.25C66.4375 71.25 65.5462 71.61 64.8263 72.33C64.1063 73.05 63.7475 73.94 63.75 75C63.75 76.0625 64.11 76.9538 64.83 77.6737C65.55 78.3937 66.44 78.7525 67.5 78.75ZM78.75 39.375C79.8125 39.375 80.7038 39.015 81.4237 38.295C82.1437 37.575 82.5025 36.685 82.5 35.625C82.5 34.5625 82.14 33.6712 81.42 32.9512C80.7 32.2313 79.81 31.8725 78.75 31.875C77.6875 31.875 76.7962 32.235 76.0763 32.955C75.3563 33.675 74.9975 34.565 75 35.625C75 36.6875 75.36 37.5788 76.08 38.2988C76.8 39.0187 77.69 39.3775 78.75 39.375Z" fill="white"/>
</svg>
