<svg width="90" height="90" viewBox="0 0 90 90" fill="none" xmlns="http://www.w3.org/2000/svg">
<path d="M37.0312 30.4688L27.6562 21.0938L39.6562 9.09375C40.4062 8.34375 41.25 7.78125 42.1875 7.40625C43.125 7.03125 44.0625 6.84375 45 6.84375C45.9375 6.84375 46.875 7.03125 47.8125 7.40625C48.75 7.78125 49.5938 8.34375 50.3438 9.09375L62.3438 21.0938L52.9688 30.4688L45 22.5L37.0312 30.4688ZM21.0938 62.3438L9.09375 50.3438C8.34375 49.5938 7.78125 48.75 7.40625 47.8125C7.03125 46.875 6.84375 45.9375 6.84375 45C6.84375 44.0625 7.03125 43.125 7.40625 42.1875C7.78125 41.25 8.34375 40.4062 9.09375 39.6562L21.0938 27.6562L30.4688 37.0312L22.5 45L30.4688 52.9688L21.0938 62.3438ZM68.9062 62.3438L59.5312 52.9688L67.5 45L59.5312 37.0312L68.9062 27.6562L80.9062 39.6562C81.6562 40.4062 82.2187 41.25 82.5937 42.1875C82.9687 43.125 83.1562 44.0625 83.1562 45C83.1562 45.9375 82.9687 46.875 82.5937 47.8125C82.2187 48.75 81.6562 49.5938 80.9062 50.3438L68.9062 62.3438ZM45 83.1562C44.0625 83.1562 43.125 82.9687 42.1875 82.5937C41.25 82.2187 40.4062 81.6562 39.6562 80.9062L27.6562 68.9062L37.0312 59.5312L45 67.5L52.9688 59.5312L62.3438 68.9062L50.3438 80.9062C49.5938 81.6562 48.75 82.2187 47.8125 82.5937C46.875 82.9687 45.9375 83.1562 45 83.1562ZM50.3438 45C50.3438 46.4375 49.8125 47.6875 48.75 48.75C47.6875 49.8125 46.4375 50.3438 45 50.3438C43.5625 50.3438 42.3125 49.8125 41.25 48.75C40.1875 47.6875 39.6562 46.4375 39.6562 45C39.6562 43.5625 40.1875 42.3125 41.25 41.25C42.3125 40.1875 43.5625 39.6562 45 39.6562C46.4375 39.6562 47.6875 40.1875 48.75 41.25C49.8125 42.3125 50.3438 43.5625 50.3438 45Z" fill="white"/>
</svg>
