<svg width="90" height="90" viewBox="0 0 90 90" fill="none" xmlns="http://www.w3.org/2000/svg">
<path d="M32.4375 75H22.5C20.4375 75 18.6712 74.265 17.2013 72.795C15.7312 71.325 14.9975 69.56 15 67.5V57.5625L7.78125 50.25C7.09375 49.5 6.5625 48.6725 6.1875 47.7675C5.8125 46.8625 5.625 45.94 5.625 45C5.625 44.0625 5.8125 43.14 6.1875 42.2325C6.5625 41.325 7.09375 40.4975 7.78125 39.75L15 32.4375V22.5C15 20.4375 15.735 18.6712 17.205 17.2013C18.675 15.7312 20.44 14.9975 22.5 15H32.4375L39.75 7.78125C40.5 7.09375 41.3287 6.5625 42.2362 6.1875C43.1437 5.8125 44.065 5.625 45 5.625C45.9375 5.625 46.86 5.8125 47.7675 6.1875C48.675 6.5625 49.5025 7.09375 50.25 7.78125L57.5625 15H67.5C69.5625 15 71.3288 15.735 72.7988 17.205C74.2688 18.675 75.0025 20.44 75 22.5V32.4375L82.2188 39.75C82.9062 40.5 83.4375 41.3287 83.8125 42.2362C84.1875 43.1437 84.375 44.065 84.375 45C84.375 45.9375 84.1875 46.86 83.8125 47.7675C83.4375 48.675 82.9062 49.5025 82.2188 50.25L75 57.5625V67.5C75 69.5625 74.265 71.3288 72.795 72.7988C71.325 74.2688 69.56 75.0025 67.5 75H57.5625L50.25 82.2188C49.5 82.9062 48.6725 83.4375 47.7675 83.8125C46.8625 84.1875 45.94 84.375 45 84.375C44.0625 84.375 43.1412 84.1875 42.2362 83.8125C41.3312 83.4375 40.5025 82.9062 39.75 82.2188L32.4375 75ZM35.625 67.5L45 76.875L54.375 67.5H67.5V54.375L76.875 45L67.5 35.625V22.5H54.375L45 13.125L35.625 22.5H22.5V35.625L13.125 45L22.5 54.375V67.5H35.625ZM39.4688 58.125L42.375 60.9375C43.125 61.6875 44 62.0625 45 62.0625C46 62.0625 46.875 61.6875 47.625 60.9375L50.5312 58.125H54.375C55.4375 58.125 56.3288 57.765 57.0488 57.045C57.7687 56.325 58.1275 55.435 58.125 54.375V50.5312L60.9375 47.625C61.6875 46.875 62.0625 46 62.0625 45C62.0625 44 61.6875 43.125 60.9375 42.375L58.125 39.4688V35.625C58.125 34.5625 57.765 33.6712 57.045 32.9512C56.325 32.2312 55.435 31.8725 54.375 31.875H50.5312L46.9688 28.4062C46.4062 27.8438 45.75 27.5625 45 27.5625C44.25 27.5625 43.5938 27.8438 43.0312 28.4062L39.4688 31.875H35.625C34.5625 31.875 33.6712 32.235 32.9512 32.955C32.2312 33.675 31.8725 34.565 31.875 35.625V39.4688L29.0625 42.375C28.3125 43.125 27.9375 44 27.9375 45C27.9375 46 28.3125 46.875 29.0625 47.625L31.875 50.5312V54.375C31.875 55.4375 32.235 56.3288 32.955 57.0488C33.675 57.7687 34.565 58.1275 35.625 58.125H39.4688Z" fill="white"/>
</svg>
