<svg width="90" height="90" viewBox="0 0 90 90" fill="none" xmlns="http://www.w3.org/2000/svg">
<g clip-path="url(#clip0_207_130)">
<path d="M32.8125 84.0938C29.9375 84.0938 27.3588 83.3438 25.0763 81.8438C22.7938 80.3438 21.0288 78.2812 19.7813 75.6562C18.7813 76.9688 17.5163 77.985 15.9863 78.705C14.4563 79.425 12.8775 79.7825 11.25 79.7775C8.0625 79.7775 5.39 78.6838 3.2325 76.4963C1.075 74.3088 -0.00249566 71.6538 4.34028e-06 68.5312C4.34028e-06 65.8438 0.875004 63.4225 2.625 61.2675C4.375 59.1125 6.59375 57.8775 9.28125 57.5625C8.40625 56.3125 7.735 54.985 7.2675 53.58C6.8 52.175 6.565 50.69 6.5625 49.125C6.5625 46.625 7.20375 44.2812 8.48625 42.0938C9.76875 39.9062 11.565 38.125 13.875 36.75C14.1875 37.875 14.61 39.0787 15.1425 40.3612C15.675 41.6437 16.2838 42.7525 16.9688 43.6875C16.0938 44.375 15.4063 45.2037 14.9063 46.1737C14.4063 47.1437 14.1563 48.1587 14.1563 49.2188C14.1563 52.7188 15.5938 54.875 18.4688 55.6875C21.3438 56.5 24.0625 57.1562 26.625 57.6562L28.4063 60.6562C27.7188 62.6562 27.125 64.36 26.625 65.7675C26.125 67.175 25.875 68.44 25.875 69.5625C25.875 71.4375 26.5475 73.0788 27.8925 74.4863C29.2375 75.8938 30.8775 76.5963 32.8125 76.5938C35.1875 76.5938 37.1563 75.5313 38.7188 73.4063C40.2813 71.2813 41.5625 68.7813 42.5625 65.9063C43.5625 63.0313 44.3288 60.125 44.8613 57.1875C45.3938 54.25 45.815 52 46.125 50.4375L53.4375 52.4062C52.875 55.2188 52.1875 58.4375 51.375 62.0625C50.5625 65.6875 49.4213 69.1413 47.9513 72.4238C46.4838 75.7038 44.5463 78.4688 42.1388 80.7188C39.7313 82.9688 36.6225 84.0938 32.8125 84.0938ZM37.875 57.4688C35 54.9062 32.3913 52.515 30.0488 50.295C27.7063 48.075 25.69 45.92 24 43.83C22.3125 41.7375 21.015 39.645 20.1075 37.5525C19.2 35.46 18.7475 33.285 18.75 31.0275C18.75 26.9675 20.1413 23.5462 22.9238 20.7638C25.7063 17.9813 29.1275 16.5913 33.1875 16.5938C33.4375 16.5938 33.6563 16.61 33.8438 16.6425C34.0313 16.675 34.25 16.69 34.5 16.6875C34.25 16.0625 34.0625 15.4375 33.9375 14.8125C33.8125 14.1875 33.75 13.5312 33.75 12.8438C33.75 9.71875 34.8438 7.0625 37.0313 4.875C39.2188 2.6875 41.875 1.59375 45 1.59375C48.125 1.59375 50.7813 2.6875 52.9688 4.875C55.1563 7.0625 56.25 9.71875 56.25 12.8438C56.25 13.5312 56.1875 14.1725 56.0625 14.7675C55.9375 15.3625 55.75 15.9712 55.5 16.5938H56.8125C60.5625 16.5938 63.75 17.7975 66.375 20.205C69 22.6125 70.5625 25.5963 71.0625 29.1562C69.9375 28.9688 68.6725 28.875 67.2675 28.875C65.8625 28.875 64.565 28.9375 63.375 29.0625C62.9375 27.625 62.14 26.4375 60.9825 25.5C59.825 24.5625 58.435 24.0938 56.8125 24.0938C54.625 24.0938 52.9213 24.735 51.7013 26.0175C50.4813 27.3 48.81 29.1588 46.6875 31.5938H43.2188C41.0313 29.0312 39.3275 27.14 38.1075 25.92C36.8875 24.7 35.2475 24.0925 33.1875 24.0975C31.1875 24.0975 29.5313 24.7537 28.2188 26.0662C26.9063 27.3787 26.25 29.0337 26.25 31.0312C26.25 32.4687 26.6563 33.9538 27.4688 35.4863C28.2813 37.0187 29.4213 38.6437 30.8888 40.3612C32.3588 42.0787 34.14 43.9062 36.2325 45.8438C38.325 47.7812 40.6538 49.875 43.2188 52.125L37.875 57.4688ZM57.0938 84.0938C55.7188 84.0938 54.3588 83.9062 53.0138 83.5312C51.6688 83.1562 50.3725 82.5625 49.125 81.75C49.8125 80.875 50.5 79.8438 51.1875 78.6563C51.875 77.4688 52.5 76.375 53.0625 75.375C53.75 75.8125 54.4375 76.125 55.125 76.3125C55.8125 76.5 56.5 76.5938 57.1875 76.5938C59.1875 76.5938 60.86 75.89 62.205 74.4825C63.55 73.075 64.2213 71.4037 64.2188 69.4688C64.2188 68.2812 63.9688 67 63.4688 65.625C62.9688 64.25 62.375 62.5625 61.6875 60.5625L63.4688 57.5625C66.0938 57.0625 68.8288 56.4062 71.6738 55.5938C74.5188 54.7812 75.94 52.625 75.9375 49.125C75.9375 46.625 75.015 44.8125 73.17 43.6875C71.325 42.5625 69.31 42 67.125 42C64.5 42 61.4375 42.5 57.9375 43.5C54.4375 44.5 50.3438 45.7812 45.6563 47.3438L43.6875 40.0312C48.5625 38.4688 52.9063 37.1562 56.7188 36.0938C60.5313 35.0312 64.0313 34.5 67.2188 34.5C71.5313 34.5 75.3125 35.7812 78.5625 38.3438C81.8125 40.9062 83.4375 44.5 83.4375 49.125C83.4375 50.6875 83.2038 52.1725 82.7363 53.58C82.2688 54.9875 81.5963 56.315 80.7188 57.5625C83.4063 57.875 85.625 59.11 87.375 61.2675C89.125 63.425 90 65.8463 90 68.5312C90 71.6562 88.9213 74.3125 86.7638 76.5C84.6063 78.6875 81.935 79.7812 78.75 79.7812C77.125 79.7812 75.5463 79.4225 74.0138 78.705C72.4813 77.9875 71.2163 76.9713 70.2188 75.6562C68.9688 78.2812 67.2025 80.3438 64.92 81.8438C62.6375 83.3438 60.0288 84.0938 57.0938 84.0938Z" fill="white"/>
</g>
<defs>
<clipPath id="clip0_207_130">
<rect width="90" height="90" fill="white"/>
</clipPath>
</defs>
</svg>
