<svg width="90" height="90" viewBox="0 0 90 90" fill="none" xmlns="http://www.w3.org/2000/svg">
<path d="M35.1562 56.3438L30 53.4375V36.5625L45 28.125L50.0625 30.6562L35.1562 56.3438ZM45 61.875L40.125 59.0625L55.125 33.1875L60 35.625V53.4375L45 61.875ZM64.6875 31.6875L45 20.9062L25.4062 31.6875L10.3125 22.7812L45 3.75L79.6875 22.7812L64.6875 31.6875ZM41.25 86.25L7.5 67.5V27.6562L22.5 36.4688V58.6875L41.25 69V86.25ZM48.75 86.25V69.0938L67.5 58.6875V36.5625L82.5 27.6562V67.5L48.75 86.25Z" fill="white"/>
</svg>
